<mxfile host="Electron" agent="Mozilla/5.0 (Windows NT 10.0; Win64; x64) AppleWebKit/537.36 (KHTML, like Gecko) draw.io/24.7.5 Chrome/126.0.6478.183 Electron/31.3.0 Safari/537.36" version="24.7.5">
  <diagram id="game-flowchart" name="Game Flowchart">
    <mxGraphModel dx="129420" dy="88406" grid="1" gridSize="10" guides="1" tooltips="1" connect="1" arrows="1" fold="1" page="1" pageScale="1" pageWidth="827" pageHeight="1169" math="0" shadow="0">
      <root>
        <mxCell id="0" />
        <mxCell id="1" parent="0" />
        <mxCell id="start" value="Start Spel" style="ellipse;whiteSpace=wrap;html=1;" parent="1" vertex="1">
          <mxGeometry x="360" y="40" width="120" height="60" as="geometry" />
        </mxCell>
        <mxCell id="initial-choice" value="Kies Pad&#xa;1. Doornige Pad&#xa;2. Heldere Pad" style="rhombus;whiteSpace=wrap;html=1;" parent="1" vertex="1">
          <mxGeometry x="340" y="160" width="160" height="80" as="geometry" />
        </mxCell>
        <mxCell id="thorny-path" value="Doornige Pad&#xa;Vind Grot" style="rounded=0;whiteSpace=wrap;html=1;" parent="1" vertex="1">
          <mxGeometry x="200" y="300" width="120" height="60" as="geometry" />
        </mxCell>
        <mxCell id="clear-path" value="Heldere Pad&#xa;Vind Rivier" style="rounded=0;whiteSpace=wrap;html=1;" parent="1" vertex="1">
          <mxGeometry x="520" y="300" width="120" height="60" as="geometry" />
        </mxCell>
        <mxCell id="cave-choice" value="Grot Keuze&#xa;1. Grot Ingaan&#xa;2. Verder Lopen" style="rhombus;whiteSpace=wrap;html=1;" parent="1" vertex="1">
          <mxGeometry x="160" y="420" width="160" height="80" as="geometry" />
        </mxCell>
        <mxCell id="river-choice" value="Rivier Keuze&#xa;1. Overzwemmen&#xa;2. Vlot Bouwen" style="rhombus;whiteSpace=wrap;html=1;" parent="1" vertex="1">
          <mxGeometry x="480" y="420" width="160" height="80" as="geometry" />
        </mxCell>
        <mxCell id="cave-bear" value="Beer Wordt Wakker&#xa;Game Over" style="rounded=0;whiteSpace=wrap;html=1;" parent="1" vertex="1">
          <mxGeometry x="40" y="560" width="120" height="60" as="geometry" />
        </mxCell>
        <mxCell id="cave-treasure" value="Vind Schat&#xa;Succes!" style="rounded=0;whiteSpace=wrap;html=1;" parent="1" vertex="1">
          <mxGeometry x="280" y="560" width="120" height="60" as="geometry" />
        </mxCell>
        <mxCell id="river-drown" value="Meegesleurd&#xa;Game Over" style="rounded=0;whiteSpace=wrap;html=1;" parent="1" vertex="1">
          <mxGeometry x="400" y="560" width="120" height="60" as="geometry" />
        </mxCell>
        <mxCell id="river-temple" value="Vind Tempel" style="rounded=0;whiteSpace=wrap;html=1;" parent="1" vertex="1">
          <mxGeometry x="640" y="560" width="120" height="60" as="geometry" />
        </mxCell>
        <mxCell id="temple-choice" value="Tempel Keuze&#xa;1. Gouden Deur&#xa;2. Houten Deur" style="rhombus;whiteSpace=wrap;html=1;" parent="1" vertex="1">
          <mxGeometry x="600" y="680" width="160" height="80" as="geometry" />
        </mxCell>
        <mxCell id="temple-trap" value="Val&#xa;Game Over" style="rounded=0;whiteSpace=wrap;html=1;" parent="1" vertex="1">
          <mxGeometry x="520" y="820" width="120" height="60" as="geometry" />
        </mxCell>
        <mxCell id="temple-treasure" value="Vind Schat&#xa;Succes!" style="rounded=0;whiteSpace=wrap;html=1;" parent="1" vertex="1">
          <mxGeometry x="680" y="820" width="120" height="60" as="geometry" />
        </mxCell>
        <mxCell id="conn1" value="" style="endArrow=classic;html=1;rounded=0;" parent="1" source="start" target="initial-choice" edge="1" />
        <mxCell id="conn2" value="1" style="endArrow=classic;html=1;rounded=0;" parent="1" source="initial-choice" target="thorny-path" edge="1" />
        <mxCell id="conn3" value="2" style="endArrow=classic;html=1;rounded=0;" parent="1" source="initial-choice" target="clear-path" edge="1" />
        <mxCell id="conn4" value="" style="endArrow=classic;html=1;rounded=0;" parent="1" source="thorny-path" target="cave-choice" edge="1" />
        <mxCell id="conn5" value="" style="endArrow=classic;html=1;rounded=0;" parent="1" source="clear-path" target="river-choice" edge="1" />
        <mxCell id="conn6" value="1" style="endArrow=classic;html=1;rounded=0;" parent="1" source="cave-choice" target="cave-bear" edge="1" />
        <mxCell id="conn7" value="2" style="endArrow=classic;html=1;rounded=0;" parent="1" source="cave-choice" target="cave-treasure" edge="1" />
        <mxCell id="conn8" value="1" style="endArrow=classic;html=1;rounded=0;" parent="1" source="river-choice" target="river-drown" edge="1" />
        <mxCell id="conn9" value="2" style="endArrow=classic;html=1;rounded=0;" parent="1" source="river-choice" target="river-temple" edge="1" />
        <mxCell id="conn10" value="" style="endArrow=classic;html=1;rounded=0;" parent="1" source="river-temple" target="temple-choice" edge="1" />
        <mxCell id="conn11" value="1" style="endArrow=classic;html=1;rounded=0;" parent="1" source="temple-choice" target="temple-trap" edge="1" />
        <mxCell id="conn12" value="2" style="endArrow=classic;html=1;rounded=0;" parent="1" source="temple-choice" target="temple-treasure" edge="1" />
        <mxCell id="jqwVArY6n_xnOp0sy-Qn-1" value="" style="shape=flexArrow;endArrow=classic;html=1;rounded=0;width=2.3529411764705883;endSize=6.647058823529412;entryX=0.75;entryY=0;entryDx=0;entryDy=0;" edge="1" parent="1" source="initial-choice" target="thorny-path">
          <mxGeometry width="50" height="50" relative="1" as="geometry">
            <mxPoint x="380" y="420" as="sourcePoint" />
            <mxPoint x="430" y="370" as="targetPoint" />
          </mxGeometry>
        </mxCell>
        <mxCell id="jqwVArY6n_xnOp0sy-Qn-2" value="" style="shape=flexArrow;endArrow=classic;html=1;rounded=0;width=2.3529411764705883;endSize=6.647058823529412;entryX=0.25;entryY=0;entryDx=0;entryDy=0;exitX=0.813;exitY=0.75;exitDx=0;exitDy=0;exitPerimeter=0;" edge="1" parent="1" source="initial-choice" target="clear-path">
          <mxGeometry width="50" height="50" relative="1" as="geometry">
            <mxPoint x="478" y="210" as="sourcePoint" />
            <mxPoint x="380" y="286" as="targetPoint" />
          </mxGeometry>
        </mxCell>
        <mxCell id="jqwVArY6n_xnOp0sy-Qn-3" value="" style="shape=flexArrow;endArrow=classic;html=1;rounded=0;width=2.3529411764705883;endSize=6.647058823529412;entryX=0.5;entryY=0;entryDx=0;entryDy=0;exitX=0.5;exitY=1;exitDx=0;exitDy=0;" edge="1" parent="1" source="start" target="initial-choice">
          <mxGeometry width="50" height="50" relative="1" as="geometry">
            <mxPoint x="438" y="100" as="sourcePoint" />
            <mxPoint x="340" y="176" as="targetPoint" />
          </mxGeometry>
        </mxCell>
        <mxCell id="jqwVArY6n_xnOp0sy-Qn-5" value="" style="edgeStyle=orthogonalEdgeStyle;rounded=0;orthogonalLoop=1;jettySize=auto;html=1;" edge="1" parent="1" source="thorny-path">
          <mxGeometry relative="1" as="geometry">
            <mxPoint x="270" y="370" as="sourcePoint" />
            <mxPoint x="250" y="430" as="targetPoint" />
          </mxGeometry>
        </mxCell>
        <mxCell id="jqwVArY6n_xnOp0sy-Qn-6" value="" style="edgeStyle=orthogonalEdgeStyle;rounded=0;orthogonalLoop=1;jettySize=auto;html=1;" edge="1" parent="1">
          <mxGeometry relative="1" as="geometry">
            <mxPoint x="580" y="360" as="sourcePoint" />
            <mxPoint x="560" y="420" as="targetPoint" />
            <Array as="points">
              <mxPoint x="580" y="410" />
              <mxPoint x="560" y="410" />
            </Array>
          </mxGeometry>
        </mxCell>
        <mxCell id="jqwVArY6n_xnOp0sy-Qn-7" value="" style="shape=flexArrow;endArrow=classic;html=1;rounded=0;width=2.3529411764705883;endSize=6.647058823529412;entryX=0.5;entryY=0;entryDx=0;entryDy=0;" edge="1" parent="1" target="cave-bear">
          <mxGeometry width="50" height="50" relative="1" as="geometry">
            <mxPoint x="200" y="480" as="sourcePoint" />
            <mxPoint x="110" y="560" as="targetPoint" />
          </mxGeometry>
        </mxCell>
        <mxCell id="jqwVArY6n_xnOp0sy-Qn-8" value="" style="shape=flexArrow;endArrow=classic;html=1;rounded=0;width=2.3529411764705883;endSize=6.647058823529412;entryX=0.5;entryY=0;entryDx=0;entryDy=0;exitX=1;exitY=1;exitDx=0;exitDy=0;" edge="1" parent="1" source="cave-choice" target="cave-treasure">
          <mxGeometry width="50" height="50" relative="1" as="geometry">
            <mxPoint x="308" y="509" as="sourcePoint" />
            <mxPoint x="210" y="585" as="targetPoint" />
          </mxGeometry>
        </mxCell>
        <mxCell id="jqwVArY6n_xnOp0sy-Qn-9" value="" style="shape=flexArrow;endArrow=classic;html=1;rounded=0;width=2.3529411764705883;endSize=6.647058823529412;entryX=0.5;entryY=0;entryDx=0;entryDy=0;exitX=0;exitY=1;exitDx=0;exitDy=0;" edge="1" parent="1" source="river-choice" target="river-drown">
          <mxGeometry width="50" height="50" relative="1" as="geometry">
            <mxPoint x="520" y="484" as="sourcePoint" />
            <mxPoint x="422" y="560" as="targetPoint" />
          </mxGeometry>
        </mxCell>
        <mxCell id="jqwVArY6n_xnOp0sy-Qn-10" value="" style="shape=flexArrow;endArrow=classic;html=1;rounded=0;width=2.3529411764705883;endSize=6.647058823529412;entryX=0.5;entryY=0;entryDx=0;entryDy=0;exitX=1;exitY=1;exitDx=0;exitDy=0;" edge="1" parent="1" source="river-choice" target="river-temple">
          <mxGeometry width="50" height="50" relative="1" as="geometry">
            <mxPoint x="640" y="500" as="sourcePoint" />
            <mxPoint x="542" y="576" as="targetPoint" />
          </mxGeometry>
        </mxCell>
        <mxCell id="jqwVArY6n_xnOp0sy-Qn-11" value="" style="shape=flexArrow;endArrow=classic;html=1;rounded=0;width=2.3529411764705883;endSize=6.647058823529412;entryX=0.5;entryY=0;entryDx=0;entryDy=0;exitX=0;exitY=1;exitDx=0;exitDy=0;" edge="1" parent="1" source="temple-choice" target="temple-trap">
          <mxGeometry width="50" height="50" relative="1" as="geometry">
            <mxPoint x="658" y="744" as="sourcePoint" />
            <mxPoint x="560" y="820" as="targetPoint" />
          </mxGeometry>
        </mxCell>
        <mxCell id="jqwVArY6n_xnOp0sy-Qn-13" value="" style="shape=flexArrow;endArrow=classic;html=1;rounded=0;width=2.3529411764705883;endSize=6.647058823529412;entryX=0.5;entryY=0;entryDx=0;entryDy=0;exitX=1;exitY=1;exitDx=0;exitDy=0;" edge="1" parent="1" source="temple-choice" target="temple-treasure">
          <mxGeometry width="50" height="50" relative="1" as="geometry">
            <mxPoint x="729" y="760" as="sourcePoint" />
            <mxPoint x="631" y="836" as="targetPoint" />
          </mxGeometry>
        </mxCell>
        <mxCell id="jqwVArY6n_xnOp0sy-Qn-14" value="" style="edgeStyle=orthogonalEdgeStyle;rounded=0;orthogonalLoop=1;jettySize=auto;html=1;" edge="1" parent="1">
          <mxGeometry relative="1" as="geometry">
            <mxPoint x="700" y="620" as="sourcePoint" />
            <mxPoint x="680" y="680" as="targetPoint" />
            <Array as="points">
              <mxPoint x="700" y="670" />
              <mxPoint x="680" y="670" />
            </Array>
          </mxGeometry>
        </mxCell>
      </root>
    </mxGraphModel>
  </diagram>
</mxfile>
